<svg width="22" height="20" viewBox="0 0 22 20" fill="none" xmlns="http://www.w3.org/2000/svg">
<path d="M10.263 12.4582L8.60024 13.9998C8.24972 14.3248 7.69249 14.3248 7.33299 14.0082C7.23412 13.9165 7.13526 13.8332 7.0364 13.7415C6.11067 12.8748 5.27482 11.9665 4.52885 11.0165C3.79186 10.0665 3.19868 9.1165 2.76727 8.17483C2.34485 7.22483 2.12915 6.3165 2.12915 5.44983C2.12915 4.88317 2.237 4.3415 2.4527 3.8415C2.66841 3.33317 3.00994 2.8665 3.48628 2.44984C4.06149 1.92484 4.69062 1.6665 5.35571 1.6665C5.60736 1.6665 5.85902 1.7165 6.08371 1.8165C6.31738 1.9165 6.5241 2.0665 6.68588 2.28317L8.77101 5.00817C8.93279 5.2165 9.04962 5.40817 9.13051 5.5915C9.2114 5.7665 9.25634 5.9415 9.25634 6.09983C9.25634 6.29983 9.19343 6.49983 9.0676 6.6915C8.95076 6.88317 8.77999 7.08317 8.56429 7.28317L7.88123 7.9415C7.78237 8.03317 7.73743 8.1415 7.73743 8.27483C7.73743 8.3415 7.74642 8.39983 7.76439 8.4665C7.79136 8.53317 7.81832 8.58317 7.83629 8.63317C7.99807 8.90816 8.27669 9.2665 8.67214 9.69983C9.07659 10.1332 9.50799 10.5748 9.97535 11.0165C10.0652 11.0998 10.1641 11.1832 10.254 11.2665C10.6135 11.5915 10.6225 12.1248 10.263 12.4582Z" fill="white"/>
<path d="M20.0774 15.2752C20.0774 15.5085 20.0325 15.7502 19.9426 15.9835C19.9156 16.0502 19.8887 16.1169 19.8527 16.1835C19.6999 16.4835 19.5022 16.7669 19.2415 17.0335C18.8012 17.4835 18.3158 17.8085 17.7676 18.0169C17.7586 18.0169 17.7496 18.0252 17.7406 18.0252C17.2103 18.2252 16.6351 18.3335 16.015 18.3335C15.0982 18.3335 14.1186 18.1335 13.085 17.7252C12.0514 17.3169 11.0178 16.7669 9.99324 16.0752C9.64272 15.8335 9.2922 15.5919 8.95966 15.3335L11.8986 12.6085C12.1503 12.7835 12.375 12.9169 12.5637 13.0085C12.6086 13.0252 12.6626 13.0502 12.7255 13.0752C12.7974 13.1002 12.8693 13.1085 12.9502 13.1085C13.103 13.1085 13.2198 13.0585 13.3187 12.9669L14.0017 12.3419C14.2264 12.1335 14.4421 11.9752 14.6488 11.8752C14.8556 11.7585 15.0623 11.7002 15.287 11.7002C15.4577 11.7002 15.6375 11.7335 15.8352 11.8085C16.0329 11.8835 16.2397 11.9919 16.4644 12.1335L19.4393 14.0919C19.673 14.2419 19.8347 14.4169 19.9336 14.6252C20.0235 14.8335 20.0774 15.0419 20.0774 15.2752Z" fill="white"/>
</svg>
