<svg width="21" height="20" viewBox="0 0 21 20" fill="none" xmlns="http://www.w3.org/2000/svg">
<path d="M12.9748 4.50002C12.5148 4.50002 12.1415 4.05202 12.1415 3.50002V2.00001H8.80815V3.50002C8.80815 4.05202 8.43482 4.50002 7.97482 4.50002C7.51481 4.50002 7.14148 4.05202 7.14148 3.50002V2.00001C7.14148 0.897004 7.88898 0 8.80815 0H12.1415C13.0607 0 13.8082 0.897004 13.8082 2.00001V3.50002C13.8082 4.05202 13.4348 4.50002 12.9748 4.50002Z" fill="black"/>
<path d="M11.0664 13.38C10.9164 13.45 10.6997 13.5 10.4747 13.5C10.2497 13.5 10.0331 13.45 9.83306 13.36L0.474731 9.61996V17.25C0.474731 18.77 1.49973 20 2.7664 20H18.1831C19.4497 20 20.4747 18.77 20.4747 17.25V9.61996L11.0664 13.38Z" fill="black"/>
<path d="M20.4747 5.75003V8.04004L10.6747 11.9601C10.6081 11.9901 10.5414 12.0001 10.4747 12.0001C10.4081 12.0001 10.3414 11.9901 10.2747 11.9601L0.474731 8.04004V5.75003C0.474731 4.23002 1.49973 3.00002 2.7664 3.00002H18.1831C19.4497 3.00002 20.4747 4.23002 20.4747 5.75003Z" fill="black"/>
</svg>
