<svg width="21" height="14" viewBox="0 0 21 14" fill="none" xmlns="http://www.w3.org/2000/svg">
<path d="M14.1903 6.97753L21.0001 11.24V2.53503L14.1903 6.97753Z" fill="black"/>
<path d="M0.800415 2.53503V11.24L7.6102 6.97753L0.800415 2.53503Z" fill="black"/>
<path d="M19.7369 0H2.06225C1.43227 0 0.932332 0.465 0.837646 1.06375L10.8996 7.6275L20.9615 1.06375C20.8668 0.465 20.3668 0 19.7369 0Z" fill="black"/>
<path d="M13.0332 7.73245L11.2468 8.89745C11.1407 8.9662 11.0208 8.99995 10.8996 8.99995C10.7784 8.99995 10.6585 8.9662 10.5524 8.89745L8.76602 7.7312L0.84021 12.695C0.93742 13.2887 1.43484 13.75 2.06228 13.75H19.7369C20.3644 13.75 20.8618 13.2887 20.959 12.695L13.0332 7.73245Z" fill="black"/>
</svg>
