<svg width="22" height="20" viewBox="0 0 22 20" fill="none" xmlns="http://www.w3.org/2000/svg">
<path d="M8.55526 6.2417C8.05195 6.2417 7.65649 6.6167 7.65649 7.07503C7.65649 7.53337 8.06094 7.90837 8.55526 7.90837C9.04958 7.90837 9.45403 7.53337 9.45403 7.07503C9.45403 6.6167 9.04958 6.2417 8.55526 6.2417Z" fill="white"/>
<path d="M19.6191 4.19984C18.8641 2.57484 17.2014 1.6665 14.8826 1.6665H7.35092C4.46588 1.6665 2.12909 3.83317 2.12909 6.50817V13.4915C2.12909 15.6415 3.10874 17.1832 4.86134 17.8832C5.03211 17.9498 5.22983 17.9082 5.35566 17.7915L19.5202 4.65817C19.655 4.53317 19.7 4.34984 19.6191 4.19984ZM9.79557 10.1998C9.44505 10.5165 8.98668 10.6665 8.52831 10.6665C8.06994 10.6665 7.61157 10.5082 7.26105 10.1998C6.34431 9.39984 5.33769 8.12484 5.72416 6.60817C6.06569 5.23317 7.37789 4.6165 8.52831 4.6165C9.67873 4.6165 10.9909 5.23317 11.3325 6.6165C11.7099 8.12484 10.7033 9.39984 9.79557 10.1998Z" fill="white"/>
<path d="M17.8305 17.1084C18.0282 17.2918 18.0013 17.5918 17.7586 17.7168C16.9677 18.1251 16.006 18.3334 14.8826 18.3334H7.35089C7.09025 18.3334 6.98239 18.0501 7.16215 17.8834L12.5907 12.8501C12.7705 12.6834 13.0491 12.6834 13.2288 12.8501L17.8305 17.1084Z" fill="white"/>
<path d="M20.1044 6.50841V13.4917C20.1044 14.5334 19.8797 15.4334 19.4394 16.1584C19.3045 16.3834 18.981 16.4001 18.7833 16.2251L14.1816 11.9584C14.0018 11.7917 14.0018 11.5334 14.1816 11.3667L19.6101 6.33341C19.7989 6.16674 20.1044 6.26674 20.1044 6.50841Z" fill="white"/>
</svg>
