<svg width="20" height="20" viewBox="0 0 20 20" fill="none" xmlns="http://www.w3.org/2000/svg">
<path d="M13.4916 1.6665H6.50829C3.47496 1.6665 1.66663 3.47484 1.66663 6.50817V13.4832C1.66663 16.5248 3.47496 18.3332 6.50829 18.3332H13.4833C16.5166 18.3332 18.325 16.5248 18.325 13.4915V6.50817C18.3333 3.47484 16.525 1.6665 13.4916 1.6665ZM14.1666 14.3748H5.83329C5.49163 14.3748 5.20829 14.0915 5.20829 13.7498C5.20829 13.4082 5.49163 13.1248 5.83329 13.1248H14.1666C14.5083 13.1248 14.7916 13.4082 14.7916 13.7498C14.7916 14.0915 14.5083 14.3748 14.1666 14.3748ZM14.1666 10.6248H5.83329C5.49163 10.6248 5.20829 10.3415 5.20829 9.99984C5.20829 9.65817 5.49163 9.37484 5.83329 9.37484H14.1666C14.5083 9.37484 14.7916 9.65817 14.7916 9.99984C14.7916 10.3415 14.5083 10.6248 14.1666 10.6248ZM14.1666 6.87484H5.83329C5.49163 6.87484 5.20829 6.5915 5.20829 6.24984C5.20829 5.90817 5.49163 5.62484 5.83329 5.62484H14.1666C14.5083 5.62484 14.7916 5.90817 14.7916 6.24984C14.7916 6.5915 14.5083 6.87484 14.1666 6.87484Z" fill="#292D32"/>
</svg>
