<svg width="21" height="20" viewBox="0 0 21 20" fill="none" xmlns="http://www.w3.org/2000/svg">
<path d="M10.8004 0.00100708C5.27815 0.00100708 0.800415 4.47786 0.800415 10.0006C0.800415 15.5233 5.27771 20.0001 10.8004 20.0001C16.3236 20.0001 20.8004 15.5233 20.8004 10.0006C20.8004 4.47786 16.3236 0.00100708 10.8004 0.00100708ZM10.8004 2.99099C12.6277 2.99099 14.1084 4.47215 14.1084 6.29856C14.1084 8.1254 12.6277 9.60612 10.8004 9.60612C8.97401 9.60612 7.49329 8.1254 7.49329 6.29856C7.49329 4.47215 8.97401 2.99099 10.8004 2.99099ZM10.7982 17.3857C8.97576 17.3857 7.30661 16.722 6.01916 15.6234C5.70554 15.3559 5.52457 14.9637 5.52457 14.5521C5.52457 12.6998 7.02373 11.2173 8.87649 11.2173H12.7252C14.5784 11.2173 16.0719 12.6998 16.0719 14.5521C16.0719 14.9641 15.8918 15.3555 15.5777 15.623C14.2907 16.722 12.6211 17.3857 10.7982 17.3857Z" fill="black"/>
</svg>
