<svg width="19" height="16" viewBox="0 0 19 16" fill="none" xmlns="http://www.w3.org/2000/svg">
<path d="M13.6106 0.916504H4.62292C1.92662 0.916504 0.129089 2.1665 0.129089 5.08317V10.9165C0.129089 13.8332 1.92662 15.0832 4.62292 15.0832H13.6106C16.3069 15.0832 18.1044 13.8332 18.1044 10.9165V5.08317C18.1044 2.1665 16.3069 0.916504 13.6106 0.916504ZM14.033 5.9915L11.2199 8.07484C10.6267 8.5165 9.87172 8.73317 9.11676 8.73317C8.36179 8.73317 7.59784 8.5165 7.01364 8.07484L4.2005 5.9915C3.9129 5.77484 3.86796 5.37484 4.09265 5.10817C4.32633 4.8415 4.74875 4.7915 5.03636 5.00817L7.8495 7.0915C8.53256 7.59984 9.69197 7.59984 10.375 7.0915L13.1882 5.00817C13.4758 4.7915 13.9072 4.83317 14.1319 5.10817C14.3656 5.37484 14.3206 5.77484 14.033 5.9915Z" fill="white"/>
</svg>
