<svg width="20" height="20" viewBox="0 0 20 20" fill="none" xmlns="http://www.w3.org/2000/svg">
<path d="M14.1033 0.960012L5.07325 3.96001C-0.996748 5.99001 -0.996748 9.30001 5.07325 11.32L7.75325 12.21L8.64325 14.89C10.6633 20.96 13.9833 20.96 16.0033 14.89L19.0133 5.87001C20.3533 1.82001 18.1533 -0.389988 14.1033 0.960012ZM14.4233 6.34001L10.6233 10.16C10.4733 10.31 10.2833 10.38 10.0933 10.38C9.90325 10.38 9.71325 10.31 9.56325 10.16C9.27325 9.87001 9.27325 9.39001 9.56325 9.10001L13.3633 5.28001C13.6533 4.99001 14.1333 4.99001 14.4233 5.28001C14.7133 5.57001 14.7133 6.05001 14.4233 6.34001Z" fill="white"/>
</svg>
