<svg width="21" height="20" viewBox="0 0 21 20" fill="none" xmlns="http://www.w3.org/2000/svg">
<path d="M20.3144 14.678L17.5175 11.8869C16.5186 10.8901 14.8204 11.2889 14.4209 12.5847C14.1212 13.4819 13.1223 13.9803 12.2233 13.7809C10.2255 13.2825 7.52844 10.6908 7.02898 8.59746C6.72931 7.7003 7.32866 6.70349 8.22767 6.40448C9.52625 6.00576 9.92581 4.31119 8.9269 3.31438L6.12997 0.523324C5.33085 -0.174441 4.13216 -0.174441 3.43293 0.523324L1.53501 2.41726C-0.362908 4.41087 1.73479 9.69395 6.42964 14.3789C11.1245 19.0639 16.4187 21.2569 18.4165 19.2633L20.3144 17.3694C21.0137 16.5719 21.0137 15.3757 20.3144 14.678Z" fill="black"/>
</svg>
